<?xml version="1.0" encoding="utf-8"?>
<!-- Generator: Adobe Illustrator 16.0.0, SVG Export Plug-In . SVG Version: 6.00 Build 0)  -->
<!DOCTYPE svg PUBLIC "-//W3C//DTD SVG 1.1//EN" "http://www.w3.org/Graphics/SVG/1.1/DTD/svg11.dtd">
<svg version="1.1" xmlns="http://www.w3.org/2000/svg" xmlns:xlink="http://www.w3.org/1999/xlink" x="0px" y="0px"
	 width="72.548px" height="23.019px" viewBox="0 0 72.548 23.019" enable-background="new 0 0 72.548 23.019" xml:space="preserve">
<g id="Reference" display="none">
</g>
<g id="Art">
	<g>
		<path d="M6.85,12.44V9.931H4.289V9.307H6.85V8.202H4.289V7.578h2.197l-2.964-4.68h1.261l2.054,3.484
			c0.234,0.429,0.364,0.715,0.559,1.131h0.052c0.195-0.364,0.377-0.741,0.611-1.17l2.145-3.445h1.261l-3.172,4.68h2.171v0.624H7.916
			v1.105h2.548v0.624H7.916v2.509H6.85z"/>
		<polygon points="15.955,12.44 15.955,11.5 17.834,11.5 17.834,4.086 15.955,4.556 15.955,3.591 19.091,2.811 19.091,11.5 
			20.97,11.5 20.97,12.44 		"/>
		<path d="M23.49,14.478v-0.47c0.406-0.114,0.609-0.595,0.609-1.441V12.44H23.49v-1.568h1.568v1.358
			C25.058,13.623,24.535,14.372,23.49,14.478z"/>
		<path d="M27.413,12.44v-1.098c0.364-0.851,1.1-1.777,2.209-2.78l0.717-0.641c0.922-0.833,1.384-1.661,1.384-2.482
			c0-0.525-0.158-0.938-0.473-1.238c-0.315-0.3-0.748-0.451-1.298-0.451c-0.652,0-1.42,0.252-2.304,0.755V3.401
			c0.833-0.394,1.661-0.59,2.482-0.59c0.88,0,1.587,0.237,2.12,0.711s0.8,1.103,0.8,1.885c0,0.563-0.134,1.062-0.403,1.498
			c-0.269,0.436-0.769,0.965-1.501,1.587l-0.482,0.413c-1.003,0.851-1.583,1.663-1.739,2.438h4.082v1.098H27.413z"/>
		<path d="M35.874,12.37v-1.168c0.897,0.355,1.604,0.533,2.12,0.533c0.597,0,1.082-0.174,1.457-0.524
			c0.374-0.349,0.562-0.801,0.562-1.355c0-1.32-0.925-1.98-2.774-1.98h-0.495V7.032l0.438-0.006c1.735,0,2.603-0.611,2.603-1.834
			c0-0.96-0.571-1.441-1.714-1.441c-0.626,0-1.316,0.176-2.069,0.527V3.185c0.741-0.25,1.46-0.375,2.158-0.375
			c1.921,0,2.882,0.726,2.882,2.177c0,1.104-0.654,1.892-1.961,2.361c1.515,0.351,2.272,1.181,2.272,2.488
			c0,0.884-0.292,1.579-0.876,2.082s-1.386,0.755-2.406,0.755C37.491,12.675,36.758,12.573,35.874,12.37z"/>
		<path d="M47.668,12.44V9.78H43.44V8.834l4.228-5.789h1.174v5.713h1.257V9.78h-1.257v2.66H47.668z M44.666,8.758h3.085V4.582
			L44.666,8.758z"/>
		<rect x="52.264" y="10.872" width="1.568" height="1.568"/>
		<path d="M56.688,12.478v-1.117c0.622,0.25,1.214,0.375,1.777,0.375c0.618,0,1.104-0.182,1.457-0.546
			c0.354-0.364,0.53-0.865,0.53-1.504c0-1.409-0.971-2.114-2.914-2.114c-0.22,0-0.451,0.015-0.692,0.044v-4.57h4.754v1.092h-3.656
			v2.476c1.206,0,2.147,0.277,2.825,0.832s1.016,1.322,1.016,2.304c0,0.914-0.308,1.63-0.924,2.148
			c-0.615,0.519-1.469,0.778-2.561,0.778C57.826,12.675,57.289,12.609,56.688,12.478z"/>
		<path d="M65.562,7.571c0.597-0.774,1.348-1.162,2.253-1.162c0.821,0,1.493,0.272,2.015,0.815c0.523,0.544,0.784,1.241,0.784,2.092
			c0,0.978-0.293,1.782-0.879,2.412c-0.586,0.63-1.33,0.946-2.231,0.946c-1.037,0-1.847-0.417-2.431-1.25s-0.876-1.991-0.876-3.472
			c0-1.629,0.335-2.895,1.006-3.796c0.67-0.901,1.615-1.352,2.834-1.352c0.559,0,1.257,0.119,2.095,0.355v1.092
			c-0.884-0.338-1.608-0.508-2.171-0.508C66.362,3.744,65.562,5.02,65.562,7.571z M69.358,9.596c0-0.711-0.16-1.27-0.479-1.676
			c-0.319-0.406-0.763-0.609-1.33-0.609c-0.529,0-0.984,0.178-1.365,0.533s-0.571,0.783-0.571,1.282
			c0,0.787,0.181,1.419,0.543,1.895c0.361,0.477,0.841,0.714,1.438,0.714c0.538,0,0.966-0.194,1.285-0.581
			C69.198,10.767,69.358,10.248,69.358,9.596z"/>
	</g>
</g>
</svg>
