<?xml version="1.0" encoding="utf-8"?>
<!-- Generator: Adobe Illustrator 16.0.0, SVG Export Plug-In . SVG Version: 6.00 Build 0)  -->
<!DOCTYPE svg PUBLIC "-//W3C//DTD SVG 1.1//EN" "http://www.w3.org/Graphics/SVG/1.1/DTD/svg11.dtd">
<svg version="1.1" xmlns="http://www.w3.org/2000/svg" xmlns:xlink="http://www.w3.org/1999/xlink" x="0px" y="0px" width="13.57px"
	 height="13.209px" viewBox="0 0 13.57 13.209" enable-background="new 0 0 13.57 13.209" xml:space="preserve">
<g id="Reference" display="none">
</g>
<g id="Art">
	<g>
		<path fill="#323232" d="M2.905,7.525L3.64,7.925h6.029l0.349-0.399c0.432,0.267,0.647,0.454,0.647,0.561
			c0,0.083-0.112,0.196-0.337,0.337V9.32c0.101,0.074,0.191,0.146,0.274,0.21l0.062,0.088c0,0.142-0.034,0.211-0.1,0.211H9.47
			c0.157,0.067,0.315,0.134,0.473,0.2l0.075,0.137c0,0.084-0.055,0.142-0.163,0.176c-0.189,0.058-0.364,0.086-0.522,0.086
			c-0.067,0.149-0.146,0.299-0.237,0.449c-0.082,0.142-0.174,0.291-0.273,0.448c-0.092,0.132-0.186,0.248-0.286,0.35L8.41,11.822
			h2.467l0.647-0.76c0.332,0.259,0.644,0.507,0.935,0.748l0.111,0.162c0,0.124-0.07,0.187-0.211,0.187H2.456
			c-0.589,0.009-0.987,0.024-1.195,0.05L1,11.661c0.364,0.107,0.85,0.161,1.456,0.161h2.318l-0.063-0.224
			c-0.033-0.199-0.092-0.398-0.174-0.598c-0.075-0.2-0.163-0.386-0.262-0.561c-0.092-0.174-0.217-0.36-0.374-0.562l0.062-0.05H3.504
			v0.188c0,0.074-0.051,0.138-0.15,0.188c-0.133,0.05-0.232,0.074-0.299,0.074c-0.1,0-0.149-0.053-0.149-0.162V7.525z M1.859,2.146
			c0-0.441-0.018-0.772-0.051-0.996c0.399,0.065,0.728,0.157,0.984,0.273c0.108,0.042,0.162,0.1,0.162,0.174L2.831,1.759
			C2.714,1.842,2.59,1.892,2.456,1.908v3.537h8.433l0.014-0.111c0.016-0.166,0.024-0.312,0.024-0.436V2.146
			c0-0.441-0.017-0.772-0.05-0.996c0.398,0.065,0.729,0.157,0.997,0.273c0.098,0.042,0.149,0.1,0.149,0.174l-0.125,0.162
			c-0.116,0.083-0.241,0.133-0.374,0.149v3.874c0,0.174-0.12,0.262-0.361,0.262c-0.183,0-0.274-0.088-0.274-0.262H2.345
			c-0.066,0.032-0.149,0.05-0.25,0.05c-0.191,0-0.286-0.096-0.286-0.287c0-0.107,0.009-0.239,0.025-0.398
			c0.016-0.182,0.025-0.336,0.025-0.46V2.146z M2.095,6.491c0.365,0.1,0.853,0.149,1.457,0.149h6.279l0.547-0.597
			c0.283,0.199,0.544,0.403,0.785,0.61l0.101,0.124c0,0.132-0.05,0.199-0.15,0.199H3.552C2.963,6.986,2.564,7.008,2.358,7.04
			L2.095,6.491z M5.782,1.646c0.208,0.142,0.39,0.281,0.549,0.425l0.048,0.074L6.343,2.257l-0.062,0.05H4.736v0.734h0.46l0.4-0.349
			c0.189,0.142,0.367,0.283,0.535,0.425l0.062,0.074L6.155,3.304L6.094,3.353H4.736v0.786h0.759l0.387-0.35
			C6.09,3.931,6.272,4.072,6.431,4.213l0.05,0.073L6.442,4.399l-0.063,0.05H4.736L4.761,4.6c0.018,0.132,0.024,0.248,0.024,0.349
			c0,0.224-0.112,0.336-0.336,0.336c-0.207,0-0.311-0.062-0.311-0.187c0-0.101,0.008-0.229,0.023-0.387
			c0.009-0.1,0.018-0.188,0.026-0.262H2.793V4.139h1.396V3.353H2.955V3.041h1.233V2.307H2.793V1.995h1.396V1.859
			c0-0.383-0.018-0.67-0.05-0.859c0.373,0.058,0.68,0.119,0.921,0.186C5.151,1.22,5.196,1.261,5.196,1.31L5.084,1.411
			C4.977,1.469,4.86,1.515,4.736,1.547v0.448h0.647L5.782,1.646z M3.504,9.469h6.228V8.286H3.504V9.469z M5.21,11.811l-0.014,0.012
			h2.816c0.116-0.165,0.216-0.327,0.298-0.484c0.1-0.208,0.195-0.425,0.287-0.648c0.092-0.232,0.166-0.464,0.224-0.697l0.025-0.163
			H4.214c0.156,0.134,0.29,0.271,0.397,0.411c0.167,0.159,0.299,0.312,0.398,0.463c0.116,0.147,0.19,0.281,0.224,0.397
			c0.034,0.1,0.051,0.207,0.051,0.323C5.284,11.583,5.26,11.711,5.21,11.811z M10.066,1.646c0.208,0.142,0.391,0.281,0.549,0.425
			l0.05,0.074l-0.038,0.111l-0.062,0.05H8.921v0.784h0.648L9.98,2.743c0.198,0.142,0.377,0.282,0.535,0.424l0.05,0.074l-0.038,0.111
			l-0.05,0.05H8.921v0.736h0.811l0.385-0.35c0.208,0.142,0.391,0.283,0.549,0.424l0.05,0.073l-0.038,0.113l-0.062,0.05H8.921
			L8.945,4.6c0.018,0.132,0.025,0.248,0.025,0.349c0,0.224-0.117,0.336-0.349,0.336c-0.19,0-0.286-0.062-0.286-0.187
			c0-0.101,0.009-0.229,0.024-0.387c0.008-0.1,0.017-0.188,0.025-0.262H6.928V4.139h1.458V3.402H7.09V3.091h1.296V2.307H7.027V1.995
			h1.358V1.859c0-0.383-0.018-0.67-0.05-0.859c0.365,0.058,0.667,0.119,0.908,0.186C9.336,1.22,9.382,1.261,9.382,1.31L9.271,1.411
			c-0.108,0.058-0.225,0.104-0.35,0.136v0.448h0.748L10.066,1.646z"/>
	</g>
</g>
</svg>
