<?xml version="1.0" encoding="utf-8"?>
<!-- Generator: Adobe Illustrator 16.0.0, SVG Export Plug-In . SVG Version: 6.00 Build 0)  -->
<!DOCTYPE svg PUBLIC "-//W3C//DTD SVG 1.1//EN" "http://www.w3.org/Graphics/SVG/1.1/DTD/svg11.dtd">
<svg version="1.1" xmlns="http://www.w3.org/2000/svg" xmlns:xlink="http://www.w3.org/1999/xlink" x="0px" y="0px"
	 width="60.881px" height="22.776px" viewBox="0 0 60.881 22.776" enable-background="new 0 0 60.881 22.776" xml:space="preserve">
<g id="Reference" display="none">
</g>
<g id="Art">
	<g>
		<polygon points="2.955,12.197 2.955,11.258 4.834,11.258 4.834,3.844 2.955,4.313 2.955,3.349 6.091,2.568 6.091,11.258 
			7.97,11.258 7.97,12.197 		"/>
		<polygon points="11.175,12.197 11.175,11.258 13.054,11.258 13.054,3.844 11.175,4.313 11.175,3.349 14.311,2.568 14.311,11.258 
			16.19,11.258 16.19,12.197 		"/>
		<path d="M20.538,2.435l0.851,0.508h5.599l0.394-0.559c0.305,0.195,0.529,0.376,0.673,0.546l0.102,0.165
			c0,0.084-0.169,0.22-0.508,0.406v9.458c0,0.279-0.076,0.495-0.229,0.647c-0.127,0.135-0.305,0.246-0.533,0.33
			c-0.195,0.093-0.368,0.14-0.521,0.14c0-0.203-0.055-0.343-0.165-0.419c-0.119-0.11-0.33-0.208-0.635-0.292
			c-0.33-0.084-0.703-0.14-1.117-0.165v-0.292c0.745,0.135,1.422,0.203,2.031,0.203c0.237,0,0.394-0.025,0.47-0.076
			c0.093-0.042,0.14-0.157,0.14-0.343v-3.39h-5.891c-0.034,0.525-0.093,1.003-0.178,1.435c-0.11,0.373-0.229,0.69-0.355,0.952
			c-0.127,0.338-0.284,0.639-0.47,0.901c-0.195,0.338-0.411,0.622-0.647,0.851c-0.229,0.254-0.495,0.5-0.8,0.736l-0.203-0.216
			c0.246-0.211,0.474-0.465,0.686-0.762c0.195-0.22,0.368-0.474,0.521-0.762c0.152-0.296,0.284-0.592,0.394-0.889
			c0.135-0.33,0.241-0.711,0.317-1.143c0.084-0.44,0.144-0.914,0.178-1.422c0.034-0.694,0.051-1.367,0.051-2.019
			C20.724,4.936,20.673,3.425,20.538,2.435z M21.224,8.935h5.865v-2.59h-5.802v0.622C21.287,7.729,21.266,8.384,21.224,8.935z
			 M21.287,6.002h5.802V3.311h-5.802V6.002z"/>
		<polygon points="32.396,12.197 32.396,11.258 34.274,11.258 34.274,3.844 32.396,4.313 32.396,3.349 35.531,2.568 35.531,11.258 
			37.41,11.258 37.41,12.197 		"/>
		<path d="M39.981,12.127v-1.168c0.897,0.355,1.604,0.533,2.12,0.533c0.597,0,1.082-0.174,1.457-0.524
			c0.374-0.349,0.562-0.801,0.562-1.355c0-1.32-0.925-1.98-2.774-1.98h-0.495V6.789l0.438-0.006c1.735,0,2.603-0.611,2.603-1.834
			c0-0.96-0.571-1.441-1.714-1.441c-0.626,0-1.316,0.176-2.069,0.527V2.942c0.741-0.25,1.46-0.375,2.158-0.375
			c1.921,0,2.882,0.726,2.882,2.177c0,1.104-0.654,1.892-1.961,2.361c1.515,0.351,2.272,1.181,2.272,2.488
			c0,0.884-0.292,1.579-0.876,2.082s-1.386,0.755-2.406,0.755C41.598,12.432,40.865,12.331,39.981,12.127z"/>
		<path d="M49.369,2.803l0.762,0.559h6.398l0.406-0.559c0.296,0.178,0.516,0.355,0.66,0.533l0.102,0.165
			c0,0.084-0.157,0.224-0.47,0.419v7.566c0,0.626,0.013,1.037,0.038,1.231c0.008,0.246,0.013,0.44,0.013,0.584
			c0,0.127-0.042,0.224-0.127,0.292c-0.11,0.051-0.203,0.076-0.279,0.076c-0.161,0-0.241-0.051-0.241-0.152v-0.825h-6.602v0.825
			c0,0.102-0.089,0.152-0.267,0.152c-0.068,0-0.157-0.025-0.267-0.076c-0.084-0.068-0.127-0.165-0.127-0.292
			c0-0.144,0.008-0.338,0.025-0.584c0.051-0.195,0.076-0.605,0.076-1.231V3.653C49.471,3.332,49.437,3.048,49.369,2.803z
			 M50.029,7.729h6.602V3.717h-6.602V7.729z M50.029,12.337h6.602V8.084h-6.602V12.337z"/>
	</g>
</g>
</svg>
