<?xml version="1.0" encoding="utf-8"?>
<!-- Generator: Adobe Illustrator 16.0.0, SVG Export Plug-In . SVG Version: 6.00 Build 0)  -->
<!DOCTYPE svg PUBLIC "-//W3C//DTD SVG 1.1//EN" "http://www.w3.org/Graphics/SVG/1.1/DTD/svg11.dtd">
<svg version="1.1" xmlns="http://www.w3.org/2000/svg" xmlns:xlink="http://www.w3.org/1999/xlink" x="0px" y="0px" width="132px"
	 height="17.847px" viewBox="0 0 132 17.847" enable-background="new 0 0 132 17.847" xml:space="preserve">
<g id="Reference" display="none">
</g>
<g id="Art">
	<g>
		<rect x="1.507" y="6.889" width="12.039" height="0.962"/>
		<path d="M26.402,6.667v0.884H20.93v6.006h-0.924V7.552h-5.395V6.667h5.395V3.444c-1.442,0.208-2.964,0.39-4.381,0.52
			c-0.039-0.221-0.156-0.585-0.26-0.793c3.172-0.312,6.903-0.858,8.944-1.521l0.754,0.806l-0.156,0.039l-0.13-0.013
			c-0.975,0.286-2.262,0.559-3.666,0.793h0.078c-0.014,0.104-0.078,0.169-0.26,0.195v3.198H26.402z"/>
		<path d="M27.663,11.166h11.688v0.91H27.663V11.166z M28.781,3.366h9.451v0.91h-9.451V3.366z"/>
		<path d="M52.402,3.015h-5.551c-0.117,0.611-0.312,1.417-0.494,2.093h4.537v8.463h-0.91V12.7h-6.773v0.871H42.34V5.108h3.12
			c0.156-0.611,0.325-1.404,0.43-2.093H40.65V2.183h11.752V3.015z M49.984,8.462V5.927h-6.773v2.535H49.984z M43.211,11.868h6.773
			v-2.6h-6.773V11.868z"/>
		<path d="M53.78,11.673h11.427v0.884H53.78V11.673z M54.534,2.742h9.945v0.884h-9.945V2.742z M55.379,7.071h8.087v0.884h-8.087
			V7.071z"/>
		<path d="M78.429,5.992v0.897h-5.486v6.657H72.02V6.889H66.65V5.992h5.369V1.48l1.195,0.065c-0.013,0.104-0.091,0.169-0.272,0.195
			v4.251H78.429z"/>
		<path d="M80.131,2.677h10.791v10.387h-0.91v-0.858h-9.01v0.962h-0.871V2.677z M81.002,11.361h9.01V3.535h-2.834v4.004
			c0,0.468,0.052,0.52,0.48,0.52h0.676c0.716,0,0.729,0,0.768-1.612c0.169,0.143,0.455,0.286,0.688,0.351
			c-0.025,0.546-0.064,1.183-0.143,1.417C89.504,8.566,89.244,8.8,88.399,8.8h-0.91c-1.17,0-1.17-0.663-1.17-1.365v-3.9H84.46
			c-0.143,2.704-0.507,4.901-2.651,6.11c-0.104-0.208-0.364-0.494-0.547-0.637c1.872-1.027,2.236-2.925,2.341-5.473h-2.601V11.361z"
			/>
		<path d="M95.159,10.724c-0.403,1.066-1.092,2.197-1.911,2.847l-0.793-0.416c0.793-0.572,1.495-1.625,1.885-2.665L95.159,10.724z
			 M102.895,5.394v4.291h-8.775V5.394h3.835V1.455l1.145,0.065c-0.014,0.091-0.092,0.156-0.273,0.182v1.235h5.058v0.832h-5.058
			v1.625H102.895z M102.011,8.865V6.213h-7.047v2.652H102.011z M96.797,13.402c0-0.649-0.117-1.742-0.286-2.587l0.832-0.065
			c0.195,0.845,0.325,1.911,0.339,2.535L96.797,13.402z M100.1,13.389c-0.144-0.65-0.533-1.742-0.937-2.548l0.807-0.182
			c0.402,0.806,0.832,1.859,0.975,2.522L100.1,13.389z M103.817,13.532c-0.377-0.779-1.261-1.95-2.054-2.808l0.779-0.351
			c0.793,0.832,1.703,1.976,2.094,2.756L103.817,13.532z"/>
		<path d="M115.153,11.933h2.224v0.871h-11.714v-0.871h2.978c0.312-1.235,0.649-2.821,0.975-4.434h-2.574V6.642h2.743
			c0.195-1.04,0.377-2.08,0.533-3.016h-3.9V2.754h10.271v0.871h-5.421c-0.156,0.949-0.352,1.976-0.56,3.016h4.446V11.933z
			 M114.27,7.5h-3.719c-0.324,1.638-0.662,3.211-0.936,4.434h4.654V7.5z"/>
		<path d="M123.019,7.89c-0.039,0.091-0.144,0.143-0.3,0.13c-0.832,2.002-2.093,4.082-3.38,5.421
			c-0.182-0.156-0.546-0.442-0.78-0.585c1.262-1.235,2.522-3.315,3.289-5.343L123.019,7.89z M124.93,4.679h5.408v0.897h-11.636
			V4.679h5.291V1.533l1.196,0.078c-0.014,0.091-0.078,0.156-0.26,0.182V4.679z M129.336,13.467
			c-0.559-1.457-1.949-3.822-3.224-5.564l0.858-0.364c1.273,1.716,2.704,4.018,3.302,5.486L129.336,13.467z"/>
	</g>
</g>
</svg>
