<?xml version="1.0" encoding="utf-8"?>
<!-- Generator: Adobe Illustrator 16.0.0, SVG Export Plug-In . SVG Version: 6.00 Build 0)  -->
<!DOCTYPE svg PUBLIC "-//W3C//DTD SVG 1.1//EN" "http://www.w3.org/Graphics/SVG/1.1/DTD/svg11.dtd">
<svg version="1.1" xmlns="http://www.w3.org/2000/svg" xmlns:xlink="http://www.w3.org/1999/xlink" x="0px" y="0px"
	 width="146.137px" height="23.019px" viewBox="0 0 146.137 23.019" enable-background="new 0 0 146.137 23.019"
	 xml:space="preserve">
<g id="Reference" display="none">
</g>
<g id="Art">
	<g>
		<path d="M4.053,12.675c-0.63,0-1.437-0.138-2.418-0.413v-1.32c1.058,0.491,1.928,0.736,2.609,0.736
			c0.525,0,0.947-0.138,1.266-0.413c0.32-0.275,0.479-0.637,0.479-1.085c0-0.368-0.104-0.681-0.314-0.939
			C5.466,8.982,5.08,8.695,4.517,8.377L3.869,8.003c-0.8-0.457-1.364-0.888-1.691-1.292C1.85,6.307,1.686,5.836,1.686,5.299
			c0-0.724,0.262-1.319,0.787-1.787c0.525-0.468,1.193-0.702,2.006-0.702c0.724,0,1.487,0.121,2.292,0.362v1.219
			C5.78,4.002,5.042,3.807,4.555,3.807c-0.461,0-0.842,0.123-1.143,0.368S2.961,4.729,2.961,5.102c0,0.313,0.11,0.59,0.33,0.832
			s0.622,0.529,1.206,0.863L5.17,7.178C5.983,7.639,6.55,8.075,6.872,8.485s0.482,0.903,0.482,1.479
			c0,0.817-0.301,1.473-0.905,1.968C5.847,12.427,5.048,12.675,4.053,12.675z"/>
		<path d="M12.807,11.564c-0.749,0.69-1.471,1.035-2.165,1.035c-0.571,0-1.045-0.179-1.422-0.537
			c-0.376-0.357-0.565-0.809-0.565-1.355c0-0.753,0.316-1.332,0.949-1.736c0.633-0.404,1.54-0.606,2.72-0.606h0.298V7.533
			c0-0.8-0.411-1.2-1.231-1.2c-0.66,0-1.373,0.203-2.139,0.609V5.908c0.842-0.343,1.631-0.514,2.368-0.514
			c0.77,0,1.338,0.173,1.704,0.521c0.366,0.347,0.549,0.887,0.549,1.619v3.123c0,0.715,0.22,1.073,0.66,1.073
			c0.055,0,0.135-0.008,0.241-0.025l0.089,0.692c-0.284,0.135-0.597,0.203-0.939,0.203C13.34,12.599,12.967,12.254,12.807,11.564z
			 M12.623,10.885V9.101l-0.419-0.013c-0.686,0-1.24,0.13-1.663,0.391c-0.423,0.26-0.635,0.602-0.635,1.025
			c0,0.3,0.106,0.554,0.317,0.762s0.47,0.311,0.774,0.311C11.518,11.577,12.06,11.346,12.623,10.885z"/>
		<polygon points="16.831,14.947 17.948,12.44 15.282,5.546 16.634,5.546 18.608,10.739 20.716,5.546 21.896,5.546 18.132,14.947 		
			"/>
		<path d="M28.041,2.417v0.47c-0.148,0.081-0.259,0.225-0.333,0.435c-0.074,0.209-0.111,0.485-0.111,0.828v0.146H28.2v1.409h-1.409
			V4.651c0-0.639,0.104-1.145,0.311-1.517S27.622,2.523,28.041,2.417z M30.39,2.417v0.47c-0.148,0.081-0.259,0.225-0.333,0.435
			c-0.074,0.209-0.111,0.485-0.111,0.828v0.146h0.603v1.409h-1.409V4.651c0-0.639,0.104-1.145,0.311-1.517S29.971,2.523,30.39,2.417
			z"/>
		<path d="M38.364,12.089h5.304v0.858H31.864v-0.858h1.833V5.797l1.17,0.078c-0.013,0.091-0.091,0.156-0.26,0.182v6.032h2.834V3.301
			h-5.07V2.456h10.842v0.845h-4.849v3.653h4.238v0.858h-4.238V12.089z"/>
		<path d="M47.672,2.026c-0.026,0.156-0.143,0.247-0.403,0.286c-0.104,1.508-0.234,4.953-0.234,6.877c0,1.937,0.962,2.873,2.6,2.873
			c1.586,0,3.198-0.793,4.68-2.47c0.13,0.208,0.429,0.624,0.585,0.767c-1.521,1.729-3.367,2.639-5.278,2.639
			c-2.366,0-3.575-1.365-3.575-3.822c0-1.638,0.117-5.668,0.208-7.267L47.672,2.026z"/>
		<path d="M57.981,3.223c-0.026,0.117-0.169,0.195-0.351,0.208c-0.156,0.975-0.247,2.145-0.247,3.237
			c0,0.481,0.026,0.949,0.052,1.365c0.156,2.21,1.053,3.549,2.054,3.536c0.52,0,1.196-1.326,1.664-2.782
			c0.182,0.182,0.533,0.429,0.754,0.559c-0.598,1.755-1.352,3.185-2.431,3.211c-1.651,0.026-2.795-1.976-2.978-4.472
			c-0.039-0.494-0.052-1.04-0.052-1.625c0-1.144,0.065-2.392,0.195-3.497L57.981,3.223z M66.601,9.268
			c-0.364-2.275-1.521-3.914-3.276-4.889l0.572-0.702c1.898,1.014,3.289,2.886,3.666,5.291L66.601,9.268z"/>
		<path d="M70.136,2.312h8.438v10.946h-0.91v-0.78h-6.63v0.858h-0.897V2.312z M77.664,3.197h-6.63v3.731h6.63V3.197z M71.033,11.595
			h6.63V7.786h-6.63V11.595z"/>
		<path d="M92.51,5.173h-4.745c1.118,2.314,3.068,4.459,5.187,5.473c-0.221,0.182-0.507,0.52-0.663,0.767
			c-2.041-1.105-3.887-3.185-5.083-5.539v4.264h2.6v0.884h-2.6v2.522h-0.91v-2.522h-2.639v-0.884h2.639V5.901
			c-1.235,2.353-3.094,4.394-5.057,5.538c-0.156-0.221-0.429-0.546-0.624-0.715c2.041-1.053,3.991-3.237,5.122-5.551h-4.693V4.289
			h5.252V1.48l1.17,0.065c-0.013,0.091-0.078,0.156-0.26,0.182v2.561h5.304V5.173z"/>
		<path d="M93.705,4.432V3.69h4.771v0.741H93.705z M98.061,9.099v3.822h-2.99v0.611h-0.767V9.099H98.061z M98.021,5.511v0.715
			h-3.705V5.511H98.021z M94.316,8.02V7.305h3.705V8.02H94.316z M97.982,1.936V2.65h-3.588V1.936H97.982z M97.28,9.84h-2.21v2.34
			h2.21V9.84z M104.625,6.954h1.3v0.793h-7.41V6.954h1.781c0.117-0.572,0.247-1.248,0.377-1.963h-1.43V4.21h1.561
			c0.078-0.494,0.156-1.001,0.234-1.456h-2.054v-0.78h6.461v0.78h-3.562l-0.221,1.456h2.964V6.954z M99.542,13.558V8.826h5.473
			v4.654h-0.845v-0.52h-3.796v0.598H99.542z M104.17,9.619h-3.796v2.535h3.796V9.619z M103.781,4.991h-2.25
			c-0.117,0.702-0.247,1.391-0.364,1.963h2.613V4.991z"/>
		<path d="M106.939,3.223c0.975-0.039,8.983-0.611,10.673-0.624l0.013,0.975c-0.169-0.013-0.325-0.013-0.481-0.013
			c-0.754,0-1.391,0.13-2.223,0.663c-1.95,1.17-3.835,3.263-3.835,4.94c0,1.82,1.274,2.899,4.498,3.315l-0.429,0.91
			c-3.692-0.533-5.07-1.911-5.07-4.226c0-1.833,1.807-4.056,4.187-5.551c-1.43,0.104-5.265,0.39-6.942,0.546
			c-0.039,0.104-0.182,0.195-0.286,0.208L106.939,3.223z M115.363,5.784c0.624,0.468,1.365,1.235,1.768,1.794l-0.494,0.403
			c-0.364-0.572-1.157-1.378-1.716-1.807L115.363,5.784z M116.768,4.64c0.637,0.468,1.391,1.222,1.768,1.794l-0.494,0.39
			c-0.351-0.52-1.105-1.326-1.716-1.794L116.768,4.64z"/>
		<path d="M125.763,3.613c-0.013-0.286-0.052-1.703-0.078-2.028l1.339,0.052c-0.013,0.104-0.104,0.234-0.338,0.273
			c0,0.156,0,0.312,0.026,1.677c1.599-0.052,3.276-0.091,4.251-0.104v0.897c-1.105-0.026-2.678,0-4.225,0.052
			c0.026,1.014,0.052,1.95,0.091,2.665c0.13,0.429,0.156,0.819,0.156,1.365c0,0.416-0.039,0.897-0.13,1.261
			c-0.338,1.521-1.456,2.86-3.744,3.771c-0.169-0.221-0.455-0.546-0.663-0.741c1.989-0.715,3.055-1.794,3.38-3.029h-0.013
			c-0.273,0.39-0.754,0.689-1.339,0.689c-1.157,0-2.184-0.949-2.184-2.275c-0.013-1.378,1.105-2.431,2.34-2.431
			c0.468,0,0.949,0.169,1.209,0.403c0-0.221-0.026-1.092-0.052-1.651c-1.352,0.026-5.46,0.169-5.993,0.195l-0.026-0.858l2.964-0.078
			L125.763,3.613z M126.01,8.176c0-0.507,0-1.69-1.326-1.69c-0.897,0.013-1.534,0.702-1.547,1.651c0,0.91,0.689,1.508,1.443,1.508
			C125.503,9.645,126.01,8.93,126.01,8.176z"/>
		<path d="M132.606,5.705v-0.47c0.148-0.076,0.259-0.22,0.333-0.432c0.074-0.211,0.111-0.491,0.111-0.838v-0.14h-0.603V2.417h1.409
			v1.054c0,0.643-0.105,1.151-0.314,1.523C133.333,5.367,133.021,5.604,132.606,5.705z M134.955,5.705v-0.47
			c0.148-0.076,0.259-0.22,0.333-0.432c0.074-0.211,0.111-0.491,0.111-0.838v-0.14h-0.603V2.417h1.409v1.054
			c0,0.643-0.105,1.151-0.314,1.523C135.682,5.367,135.37,5.604,134.955,5.705z"/>
		<path d="M138.497,9.933l-0.159-5.008V3.045h1.25v1.879l-0.152,5.008H138.497z M138.338,12.44v-1.25h1.25v1.25H138.338z"/>
	</g>
</g>
</svg>
