<?xml version="1.0" encoding="utf-8"?>
<!-- Generator: Adobe Illustrator 16.0.0, SVG Export Plug-In . SVG Version: 6.00 Build 0)  -->
<!DOCTYPE svg PUBLIC "-//W3C//DTD SVG 1.1//EN" "http://www.w3.org/Graphics/SVG/1.1/DTD/svg11.dtd">
<svg version="1.1" xmlns="http://www.w3.org/2000/svg" xmlns:xlink="http://www.w3.org/1999/xlink" x="0px" y="0px"
	 width="22.973px" height="22.776px" viewBox="0 0 22.973 22.776" enable-background="new 0 0 22.973 22.776" xml:space="preserve">
<g id="Reference" display="none">
</g>
<g id="Art">
	<g>
		<path d="M4.053,12.432c-0.63,0-1.437-0.138-2.418-0.413v-1.32c1.058,0.491,1.928,0.736,2.609,0.736
			c0.525,0,0.947-0.138,1.266-0.413c0.32-0.275,0.479-0.637,0.479-1.085c0-0.368-0.104-0.681-0.314-0.939
			C5.466,8.74,5.08,8.452,4.517,8.135L3.869,7.76c-0.8-0.457-1.364-0.888-1.691-1.292C1.85,6.064,1.686,5.594,1.686,5.056
			c0-0.724,0.262-1.319,0.787-1.787c0.525-0.468,1.193-0.702,2.006-0.702c0.724,0,1.487,0.121,2.292,0.362v1.219
			C5.78,3.759,5.042,3.564,4.555,3.564c-0.461,0-0.842,0.123-1.143,0.368S2.961,4.487,2.961,4.859c0,0.313,0.11,0.59,0.33,0.832
			S3.914,6.22,4.498,6.554L5.17,6.935C5.983,7.396,6.55,7.832,6.872,8.243s0.482,0.903,0.482,1.479c0,0.817-0.301,1.473-0.905,1.968
			C5.847,12.185,5.048,12.432,4.053,12.432z"/>
		<path d="M12.807,11.321c-0.749,0.69-1.471,1.035-2.165,1.035c-0.571,0-1.045-0.179-1.422-0.537
			c-0.376-0.357-0.565-0.809-0.565-1.355c0-0.753,0.316-1.332,0.949-1.736c0.633-0.404,1.54-0.606,2.72-0.606h0.298V7.291
			c0-0.8-0.411-1.2-1.231-1.2c-0.66,0-1.373,0.203-2.139,0.609V5.666c0.842-0.343,1.631-0.514,2.368-0.514
			c0.77,0,1.338,0.173,1.704,0.521c0.366,0.347,0.549,0.887,0.549,1.619v3.123c0,0.715,0.22,1.073,0.66,1.073
			c0.055,0,0.135-0.008,0.241-0.025l0.089,0.692c-0.284,0.135-0.597,0.203-0.939,0.203C13.34,12.356,12.967,12.011,12.807,11.321z
			 M12.623,10.642V8.858l-0.419-0.013c-0.686,0-1.24,0.13-1.663,0.391c-0.423,0.26-0.635,0.602-0.635,1.025
			c0,0.3,0.106,0.554,0.317,0.762s0.47,0.311,0.774,0.311C11.518,11.334,12.06,11.104,12.623,10.642z"/>
		<polygon points="16.831,14.705 17.948,12.197 15.282,5.304 16.634,5.304 18.608,10.496 20.716,5.304 21.896,5.304 18.132,14.705 
					"/>
	</g>
</g>
</svg>
