<?xml version="1.0" encoding="utf-8"?>
<!-- Generator: Adobe Illustrator 16.0.0, SVG Export Plug-In . SVG Version: 6.00 Build 0)  -->
<!DOCTYPE svg PUBLIC "-//W3C//DTD SVG 1.1//EN" "http://www.w3.org/Graphics/SVG/1.1/DTD/svg11.dtd">
<svg version="1.1" xmlns="http://www.w3.org/2000/svg" xmlns:xlink="http://www.w3.org/1999/xlink" x="0px" y="0px" width="39.05px"
	 height="17.847px" viewBox="0 0 39.05 17.847" enable-background="new 0 0 39.05 17.847" xml:space="preserve">
<g id="Reference" display="none">
</g>
<g id="Art">
	<g>
		<path d="M8.111,12.089h5.304v0.858H1.611v-0.858h1.833V5.797l1.17,0.078c-0.013,0.091-0.091,0.156-0.26,0.182v6.032h2.834V3.301
			h-5.07V2.456H12.96v0.845H8.111v3.653h4.238v0.858H8.111V12.089z"/>
		<path d="M17.419,2.026c-0.026,0.156-0.143,0.247-0.403,0.286c-0.104,1.508-0.234,4.953-0.234,6.877c0,1.937,0.962,2.873,2.6,2.873
			c1.586,0,3.198-0.793,4.68-2.47c0.13,0.208,0.429,0.624,0.585,0.767c-1.521,1.729-3.367,2.639-5.278,2.639
			c-2.366,0-3.575-1.365-3.575-3.822c0-1.638,0.117-5.668,0.208-7.267L17.419,2.026z"/>
		<path d="M27.729,3.223c-0.026,0.117-0.169,0.195-0.351,0.208c-0.156,0.975-0.247,2.145-0.247,3.237
			c0,0.481,0.026,0.949,0.052,1.365c0.156,2.21,1.053,3.549,2.054,3.536c0.52,0,1.196-1.326,1.664-2.782
			c0.182,0.182,0.533,0.429,0.754,0.559c-0.598,1.755-1.352,3.185-2.431,3.211c-1.651,0.026-2.795-1.976-2.978-4.472
			c-0.039-0.494-0.052-1.04-0.052-1.625c0-1.144,0.065-2.392,0.195-3.497L27.729,3.223z M36.348,9.268
			c-0.364-2.275-1.521-3.914-3.276-4.889l0.572-0.702c1.898,1.014,3.289,2.886,3.666,5.291L36.348,9.268z"/>
	</g>
</g>
</svg>
