<?xml version="1.0" encoding="utf-8"?>
<!-- Generator: Adobe Illustrator 16.0.0, SVG Export Plug-In . SVG Version: 6.00 Build 0)  -->
<!DOCTYPE svg PUBLIC "-//W3C//DTD SVG 1.1//EN" "http://www.w3.org/Graphics/SVG/1.1/DTD/svg11.dtd">
<svg version="1.1" xmlns="http://www.w3.org/2000/svg" xmlns:xlink="http://www.w3.org/1999/xlink" x="0px" y="0px" width="27.48px"
	 height="17.847px" viewBox="0 0 27.48 17.847" enable-background="new 0 0 27.48 17.847" xml:space="preserve">
<g id="Reference" display="none">
</g>
<g id="Art">
	<g>
		<path d="M1.676,3.223c0.975-0.039,8.983-0.611,10.673-0.624l0.013,0.975c-0.169-0.013-0.325-0.013-0.481-0.013
			c-0.754,0-1.391,0.13-2.223,0.663c-1.95,1.17-3.835,3.263-3.835,4.94c0,1.82,1.274,2.899,4.498,3.315l-0.429,0.91
			c-3.692-0.533-5.07-1.911-5.07-4.226c0-1.833,1.807-4.056,4.186-5.551c-1.43,0.104-5.265,0.39-6.942,0.546
			C2.027,4.263,1.884,4.354,1.78,4.367L1.676,3.223z M10.1,5.784c0.624,0.468,1.365,1.235,1.768,1.794l-0.494,0.403
			c-0.364-0.572-1.157-1.378-1.716-1.807L10.1,5.784z M11.504,4.64c0.637,0.468,1.391,1.222,1.768,1.794l-0.494,0.39
			c-0.351-0.52-1.105-1.326-1.716-1.794L11.504,4.64z"/>
		<path d="M20.5,3.613c-0.013-0.286-0.052-1.703-0.078-2.028l1.339,0.052c-0.013,0.104-0.104,0.234-0.338,0.273
			c0,0.156,0,0.312,0.026,1.677c1.599-0.052,3.276-0.091,4.251-0.104v0.897c-1.105-0.026-2.678,0-4.225,0.052
			c0.026,1.014,0.052,1.95,0.091,2.665c0.13,0.429,0.156,0.819,0.156,1.365c0,0.416-0.039,0.897-0.13,1.261
			c-0.338,1.521-1.456,2.86-3.744,3.771c-0.169-0.221-0.455-0.546-0.663-0.741c1.989-0.715,3.055-1.794,3.38-3.029h-0.013
			c-0.273,0.39-0.754,0.689-1.339,0.689c-1.157,0-2.184-0.949-2.184-2.275c-0.013-1.378,1.105-2.431,2.34-2.431
			c0.468,0,0.949,0.169,1.209,0.403c0-0.221-0.026-1.092-0.052-1.651c-1.353,0.026-5.46,0.169-5.994,0.195l-0.026-0.858l2.964-0.078
			L20.5,3.613z M20.747,8.176c0-0.507,0-1.69-1.326-1.69c-0.897,0.013-1.534,0.702-1.547,1.651c0,0.91,0.689,1.508,1.443,1.508
			C20.24,9.645,20.747,8.93,20.747,8.176z"/>
	</g>
</g>
</svg>
