<?xml version="1.0" encoding="utf-8"?>
<!-- Generator: Adobe Illustrator 16.0.0, SVG Export Plug-In . SVG Version: 6.00 Build 0)  -->
<!DOCTYPE svg PUBLIC "-//W3C//DTD SVG 1.1//EN" "http://www.w3.org/Graphics/SVG/1.1/DTD/svg11.dtd">
<svg version="1.1" xmlns="http://www.w3.org/2000/svg" xmlns:xlink="http://www.w3.org/1999/xlink" x="0px" y="0px" width="39.96px"
	 height="17.847px" viewBox="0 0 39.96 17.847" enable-background="new 0 0 39.96 17.847" xml:space="preserve">
<g id="Reference" display="none">
</g>
<g id="Art">
	<g>
		<path d="M2.833,2.312h8.438v10.946h-0.91v-0.78H3.73v0.858H2.833V2.312z M10.36,3.197H3.73v3.731h6.63V3.197z M3.73,11.595h6.63
			V7.786H3.73V11.595z"/>
		<path d="M25.207,5.173h-4.745c1.118,2.314,3.068,4.459,5.187,5.473c-0.221,0.182-0.507,0.52-0.663,0.767
			c-2.041-1.105-3.887-3.185-5.083-5.539v4.264h2.6v0.884h-2.6v2.522h-0.91v-2.522h-2.639v-0.884h2.639V5.901
			c-1.235,2.353-3.094,4.394-5.057,5.538c-0.156-0.221-0.429-0.546-0.624-0.715c2.041-1.053,3.991-3.237,5.122-5.551H13.74V4.289
			h5.252V1.48l1.17,0.065c-0.013,0.091-0.078,0.156-0.26,0.182v2.561h5.304V5.173z"/>
		<path d="M26.402,4.432V3.69h4.771v0.741H26.402z M30.757,9.099v3.822h-2.99v0.611H27V9.099H30.757z M30.718,5.511v0.715h-3.705
			V5.511H30.718z M27.013,8.02V7.305h3.705V8.02H27.013z M30.679,1.936V2.65h-3.588V1.936H30.679z M29.977,9.84h-2.21v2.34h2.21
			V9.84z M37.322,6.954h1.3v0.793h-7.411V6.954h1.781c0.117-0.572,0.247-1.248,0.377-1.963h-1.43V4.21h1.56
			c0.078-0.494,0.156-1.001,0.234-1.456H31.68v-0.78h6.461v0.78h-3.562L34.358,4.21h2.964V6.954z M32.239,13.558V8.826h5.473v4.654
			h-0.845v-0.52h-3.796v0.598H32.239z M36.867,9.619h-3.796v2.535h3.796V9.619z M36.478,4.991h-2.249
			c-0.117,0.702-0.247,1.391-0.364,1.963h2.613V4.991z"/>
	</g>
</g>
</svg>
