<?xml version="1.0" encoding="utf-8"?>
<!-- Generator: Adobe Illustrator 16.0.0, SVG Export Plug-In . SVG Version: 6.00 Build 0)  -->
<!DOCTYPE svg PUBLIC "-//W3C//DTD SVG 1.1//EN" "http://www.w3.org/Graphics/SVG/1.1/DTD/svg11.dtd">
<svg version="1.1" xmlns="http://www.w3.org/2000/svg" xmlns:xlink="http://www.w3.org/1999/xlink" x="0px" y="0px"
	 width="57.929px" height="22.776px" viewBox="0 0 57.929 22.776" enable-background="new 0 0 57.929 22.776" xml:space="preserve">
<g id="Reference">
</g>
<g id="Art">
	<g>
		<path d="M4.834,6.402L2.955,8.75l1.879,2.349l-0.622,0.47L1.705,8.75l2.507-2.818L4.834,6.402z M7.341,6.402L5.462,8.75
			l1.879,2.349l-0.622,0.47L4.212,8.75l2.507-2.818L7.341,6.402z"/>
		<path d="M9.062,4.053v-1.25h1.25v1.25H9.062z M9.062,12.197V5.304h1.25v6.894H9.062z"/>
		<path d="M12.781,12.197V2.803h2.558c1.134,0,1.949,0.191,2.444,0.574c0.495,0.383,0.743,1.013,0.743,1.889
			c0,0.999-0.338,1.782-1.016,2.349s-1.617,0.851-2.818,0.851h-0.59v3.732H12.781z M14.102,7.456h0.54
			c0.792,0,1.403-0.182,1.834-0.546s0.647-0.878,0.647-1.542c0-0.563-0.169-0.965-0.508-1.206s-0.903-0.362-1.695-0.362h-0.819
			V7.456z"/>
		<path d="M20.005,12.197V2.174h1.25v4.424c0.66-0.965,1.468-1.447,2.425-1.447c0.597,0,1.073,0.189,1.428,0.568
			c0.355,0.378,0.533,0.887,0.533,1.526v4.951h-1.25V7.652c0-0.512-0.075-0.877-0.226-1.095c-0.15-0.218-0.398-0.327-0.746-0.327
			c-0.766,0-1.487,0.501-2.165,1.504v4.462H20.005z"/>
		<path d="M30.771,12.356c-0.986,0-1.773-0.327-2.361-0.981c-0.588-0.653-0.882-1.528-0.882-2.625c0-1.109,0.295-1.986,0.885-2.631
			c0.591-0.645,1.392-0.968,2.403-0.968s1.812,0.323,2.403,0.968c0.59,0.646,0.885,1.519,0.885,2.619
			c0,1.125-0.296,2.01-0.889,2.653S31.807,12.356,30.771,12.356z M30.79,11.417c1.325,0,1.987-0.893,1.987-2.679
			c0-1.765-0.654-2.647-1.961-2.647c-1.303,0-1.955,0.887-1.955,2.66C28.86,10.528,29.503,11.417,30.79,11.417z"/>
		<path d="M36.058,12.197V5.304h1.25v1.295c0.66-0.965,1.468-1.447,2.425-1.447c0.597,0,1.073,0.189,1.428,0.568
			c0.355,0.378,0.533,0.887,0.533,1.526v4.951h-1.25V7.652c0-0.512-0.075-0.877-0.226-1.095c-0.15-0.218-0.398-0.327-0.746-0.327
			c-0.766,0-1.487,0.501-2.165,1.504v4.462H36.058z"/>
		<path d="M49.179,11.975c-0.838,0.254-1.555,0.381-2.152,0.381c-1.016,0-1.844-0.337-2.485-1.012
			c-0.641-0.675-0.961-1.55-0.961-2.625c0-1.045,0.283-1.902,0.847-2.571c0.565-0.668,1.288-1.003,2.168-1.003
			c0.833,0,1.478,0.296,1.933,0.889c0.455,0.592,0.683,1.435,0.683,2.526l-0.006,0.387h-4.348c0.182,1.638,0.984,2.457,2.406,2.457
			c0.521,0,1.16-0.14,1.917-0.419V11.975z M44.913,8.008h3.041c0-1.282-0.478-1.923-1.435-1.923
			C45.559,6.084,45.023,6.726,44.913,8.008z"/>
		<path d="M51.21,5.932l2.507,2.818l-2.507,2.818l-0.622-0.47l1.879-2.349l-1.879-2.349L51.21,5.932z M53.717,5.932l2.507,2.818
			l-2.507,2.818l-0.622-0.47l1.879-2.349l-1.879-2.349L53.717,5.932z"/>
	</g>
</g>
</svg>
