<?xml version="1.0" encoding="utf-8"?>
<!-- Generator: Adobe Illustrator 16.0.0, SVG Export Plug-In . SVG Version: 6.00 Build 0)  -->
<!DOCTYPE svg PUBLIC "-//W3C//DTD SVG 1.1//EN" "http://www.w3.org/Graphics/SVG/1.1/DTD/svg11.dtd">
<svg version="1.1" xmlns="http://www.w3.org/2000/svg" xmlns:xlink="http://www.w3.org/1999/xlink" x="0px" y="0px"
	 width="57.307px" height="23.019px" viewBox="0 0 57.307 23.019" enable-background="new 0 0 57.307 23.019" xml:space="preserve">
<g id="Reference" display="none">
</g>
<g id="Art">
	<g>
		<polygon points="3.106,10.867 3.106,1.325 7.436,1.325 7.436,2 3.783,2 3.783,10.867 		"/>
		<path d="M8.75,4.296v-1.25h1.25v1.25H8.75z M8.75,12.44V5.546h1.25v6.894H8.75z"/>
		<path d="M12.47,12.44V3.045h2.558c1.134,0,1.949,0.191,2.444,0.574c0.495,0.383,0.743,1.013,0.743,1.889
			c0,0.999-0.338,1.782-1.016,2.349s-1.617,0.851-2.818,0.851h-0.59v3.732H12.47z M13.791,7.698h0.54
			c0.792,0,1.403-0.182,1.834-0.546s0.647-0.878,0.647-1.542c0-0.563-0.169-0.965-0.508-1.206s-0.903-0.362-1.695-0.362h-0.819
			V7.698z"/>
		<path d="M19.694,12.44V2.417h1.25v4.424c0.66-0.965,1.468-1.447,2.425-1.447c0.597,0,1.073,0.189,1.428,0.568
			c0.355,0.378,0.533,0.887,0.533,1.526v4.951h-1.25V7.895c0-0.512-0.075-0.877-0.226-1.095c-0.15-0.218-0.398-0.327-0.746-0.327
			c-0.766,0-1.487,0.501-2.165,1.504v4.462H19.694z"/>
		<path d="M30.459,12.599c-0.986,0-1.773-0.327-2.361-0.981c-0.588-0.653-0.882-1.528-0.882-2.625c0-1.109,0.295-1.986,0.885-2.631
			c0.591-0.645,1.392-0.968,2.403-0.968s1.812,0.323,2.403,0.968c0.59,0.646,0.885,1.519,0.885,2.619
			c0,1.125-0.296,2.01-0.889,2.653S31.496,12.599,30.459,12.599z M30.479,11.659c1.325,0,1.987-0.893,1.987-2.679
			c0-1.765-0.654-2.647-1.961-2.647c-1.303,0-1.955,0.887-1.955,2.66C28.549,10.771,29.192,11.659,30.479,11.659z"/>
		<path d="M35.747,12.44V5.546h1.25v1.295c0.66-0.965,1.468-1.447,2.425-1.447c0.597,0,1.073,0.189,1.428,0.568
			c0.355,0.378,0.533,0.887,0.533,1.526v4.951h-1.25V7.895c0-0.512-0.075-0.877-0.226-1.095c-0.15-0.218-0.398-0.327-0.746-0.327
			c-0.766,0-1.487,0.501-2.165,1.504v4.462H35.747z"/>
		<path d="M48.868,12.218c-0.838,0.254-1.555,0.381-2.152,0.381c-1.016,0-1.844-0.337-2.485-1.012
			c-0.641-0.675-0.961-1.55-0.961-2.625c0-1.045,0.283-1.902,0.847-2.571c0.565-0.668,1.288-1.003,2.168-1.003
			c0.833,0,1.478,0.296,1.933,0.889c0.455,0.592,0.683,1.435,0.683,2.526L48.893,9.19h-4.348c0.182,1.638,0.984,2.457,2.406,2.457
			c0.521,0,1.16-0.14,1.917-0.419V12.218z M44.602,8.25h3.041c0-1.282-0.478-1.923-1.435-1.923
			C45.248,6.327,44.712,6.968,44.602,8.25z"/>
		<polygon points="54.332,4.002 54.332,13.545 50.002,13.545 50.002,12.856 53.655,12.856 53.655,4.002 		"/>
	</g>
</g>
</svg>
