<?xml version="1.0" encoding="utf-8"?>
<!-- Generator: Adobe Illustrator 16.0.0, SVG Export Plug-In . SVG Version: 6.00 Build 0)  -->
<!DOCTYPE svg PUBLIC "-//W3C//DTD SVG 1.1//EN" "http://www.w3.org/Graphics/SVG/1.1/DTD/svg11.dtd">
<svg version="1.1" xmlns="http://www.w3.org/2000/svg" xmlns:xlink="http://www.w3.org/1999/xlink" x="0px" y="0px"
	 width="210.768px" height="23.019px" viewBox="0 0 210.768 23.019" enable-background="new 0 0 210.768 23.019"
	 xml:space="preserve">
<g id="Reference" display="none">
</g>
<g id="Art">
	<g>
		<path d="M1.741,1.688l0.702,0.598h2.093l0.312-0.416l0.598,0.39l0.052,0.13c0,0.156-0.104,0.234-0.169,0.247
			c-0.104,0.039-0.143,0.091-0.143,0.13v8.333L5.043,11.27c-0.442,0.091-0.507,0.104-0.507-0.156v-0.507H2.391v1.209
			c0,0.156-0.169,0.195-0.52,0.286c-0.091,0-0.13-0.104-0.13-0.286V1.688z M2.391,6.251h2.145V2.677H2.391V6.251z M2.391,10.217
			h2.145V6.642H2.391V10.217z M12.232,1.988l0.351-0.351l0.52,0.442l0.078,0.143c0,0.117-0.091,0.182-0.169,0.208
			c-0.078,0.026-0.13,0.104-0.143,0.221c-0.039,0.858-0.13,1.625-0.234,2.301c-0.234,1.534-0.468,2.093-1.677,2.171
			c-0.078-0.507-0.481-0.65-0.936-0.728L9.918,6.278c0-0.052,0.039-0.156,0.143-0.156h0.026c0.533,0.143,0.949,0.221,1.209,0.221
			c0.143,0,0.299,0,0.468-0.364c0.039-0.065,0.364-0.988,0.468-3.601H9.32C9.229,3.639,8.878,5.55,7.318,6.629
			c-0.624,0.429-1.183,0.65-1.235,0.65c-0.117,0-0.117-0.117-0.117-0.143l0.078-0.117c2.379-1.183,2.574-3.744,2.639-4.641H6.226
			l-0.234-0.39H12.232z M6.72,7.682l0.572,0.39h4.589l0.351-0.351l0.598,0.39l0.078,0.13c0,0.065-0.052,0.182-0.208,0.221
			c-0.104,0.026-0.169,0.091-0.169,0.143v4.797l-0.13,0.182c-0.39,0.104-0.507,0.13-0.507-0.182v-0.923H7.37v0.806
			c0,0.065-0.052,0.13-0.156,0.182c-0.429,0.091-0.494,0.104-0.494-0.208V7.682z M7.37,8.475v3.614h4.524V8.475H7.37z"/>
		<path d="M17.328,6.694c-0.858,3.146-2.574,4.576-2.704,4.576l-0.078-0.104l0.039-0.091c1.417-1.703,1.963-3.263,2.431-5.395
			h-2.197l-0.104-0.39h2.613V3.041c-0.715,0.169-1.495,0.312-2.301,0.416c-0.156,0-0.182-0.052-0.182-0.13l0.104-0.13
			c1.469-0.273,3.588-0.923,4.342-1.677l0.559,0.429l0.117,0.195c0,0.117-0.117,0.182-0.195,0.182l-0.377-0.013
			c-0.091,0.052-1.183,0.546-1.417,0.546V5.29h0.715l0.819-0.689l0.832,0.624c0.065,0.039,0.104,0.104,0.104,0.195
			c0,0.156-0.117,0.26-0.299,0.26h-2.171v0.858c0.936,0.481,2.184,1.677,2.184,2.262c0,0.052,0,0.351-0.299,0.351
			c-0.234,0-0.286-0.169-0.299-0.195c-0.273-0.585-0.598-1.092-0.937-1.482l-0.65-0.624v6.526c0,0.182-0.468,0.234-0.494,0.234
			c-0.104,0-0.156-0.078-0.156-0.234V6.694z M21.241,2.56l0.65,0.546h3.367l0.312-0.429l0.598,0.403l0.052,0.117
			c0,0.156-0.104,0.234-0.182,0.26c-0.104,0.039-0.13,0.091-0.13,0.13v9.087l-0.143,0.169c-0.455,0.104-0.507,0.117-0.507-0.156
			v-0.858h-3.367v0.949c0,0.156-0.117,0.182-0.52,0.286c-0.091,0-0.13-0.104-0.13-0.286V2.56z M21.891,11.426h3.367v-7.93h-3.367
			V11.426z"/>
		<path d="M29.234,7.571c0.597-0.774,1.348-1.162,2.253-1.162c0.821,0,1.493,0.272,2.015,0.815c0.523,0.544,0.784,1.241,0.784,2.092
			c0,0.978-0.293,1.782-0.879,2.412c-0.586,0.63-1.33,0.946-2.231,0.946c-1.037,0-1.847-0.417-2.431-1.25S27.87,9.433,27.87,7.952
			c0-1.629,0.335-2.895,1.006-3.796c0.67-0.901,1.615-1.352,2.834-1.352c0.559,0,1.257,0.119,2.095,0.355v1.092
			c-0.884-0.338-1.608-0.508-2.171-0.508C30.034,3.744,29.234,5.02,29.234,7.571z M33.03,9.596c0-0.711-0.16-1.27-0.479-1.676
			c-0.319-0.406-0.763-0.609-1.33-0.609c-0.529,0-0.984,0.178-1.365,0.533s-0.571,0.783-0.571,1.282
			c0,0.787,0.181,1.419,0.543,1.895c0.361,0.477,0.841,0.714,1.438,0.714c0.538,0,0.966-0.194,1.285-0.581
			C32.871,10.767,33.03,10.248,33.03,9.596z"/>
		<path d="M40.114,12.44V9.78h-4.228V8.834l4.228-5.789h1.174v5.713h1.257V9.78h-1.257v2.66H40.114z M37.112,8.758h3.085V4.582
			L37.112,8.758z"/>
		<path d="M44.104,9.944L44,9.554h2.197V5.627l0.585,0.468h3.185V3.586h-3.575l-0.507,0.936c-0.702,1.157-1.612,2.028-1.742,2.028
			l-0.104-0.104L44.09,6.33c0.624-0.728,1.144-1.521,1.521-2.34c0.455-0.923,0.78-1.716,0.845-2.509l0.741,0.169
			c0.143,0.039,0.221,0.104,0.221,0.182c0,0.13-0.078,0.195-0.182,0.195c-0.104,0-0.169,0.013-0.182,0.065L46.6,3.197h6.825
			l0.806-0.676l0.78,0.585c0.091,0.078,0.143,0.169,0.143,0.247c0,0.143-0.104,0.247-0.273,0.247h-4.264v2.496h1.95l0.793-0.689
			l0.793,0.585c0.104,0.091,0.13,0.182,0.13,0.273c0,0.182-0.156,0.221-0.26,0.221h-3.406v3.068h3.51l0.819-0.689l0.832,0.624
			l0.104,0.195c0,0.143-0.104,0.26-0.299,0.26h-4.966v3.432c0,0.182-0.481,0.234-0.494,0.234c-0.104,0-0.156-0.078-0.156-0.234
			V9.944H44.104z M49.967,9.554V6.473h-3.107v3.081H49.967z"/>
		<polygon points="58.396,12.44 58.396,11.5 60.274,11.5 60.274,4.086 58.396,4.556 58.396,3.591 61.531,2.811 61.531,11.5 
			63.41,11.5 63.41,12.44 		"/>
		<path d="M74.892,12.765c0,0.364-0.26,0.624-1.183,0.793c-0.104-0.416-0.312-0.52-1.274-0.767c-0.091-0.026-0.13-0.078-0.13-0.156
			l0.117-0.091h0.039c0.546,0.065,0.962,0.104,1.248,0.104c0.299,0,0.533-0.013,0.533-0.325V8.579h-5.747l-0.052,0.507
			c-0.221,1.274-0.676,2.47-1.508,3.341c-0.507,0.572-1.248,1.04-1.378,1.04l-0.104-0.117l0.065-0.117
			c1.066-0.78,1.599-1.781,1.872-2.587c0.585-1.612,0.598-4.264,0.585-5.019V1.584l0.507,0.455h5.759l0.286-0.364l0.507,0.416
			c0.104,0.078,0.169,0.169,0.169,0.273s-0.065,0.195-0.169,0.234c-0.091,0.039-0.143,0.091-0.143,0.143V12.765z M68.639,5.419
			v0.208l-0.104,2.548h5.708V5.419H68.639z M68.639,2.43v2.6h5.604v-2.6H68.639z"/>
		<path d="M79.616,12.44c0.123-0.732,0.297-1.365,0.523-1.898c0.227-0.533,0.627-1.265,1.203-2.196l2.564-4.126H79.07V3.045h6.03
			V4.22c-2.408,3.55-3.756,6.291-4.043,8.22H79.616z"/>
		<path d="M88.65,2l0.65,0.546h6.267l0.312-0.429l0.598,0.403l0.052,0.13c0,0.117-0.091,0.221-0.182,0.247
			c-0.104,0.039-0.143,0.091-0.143,0.13v9.945c0,0.182-0.338,0.247-0.468,0.247c-0.117,0-0.169-0.078-0.169-0.234v-0.91H89.3v0.897
			c0,0.169-0.156,0.208-0.52,0.299c-0.091,0-0.13-0.104-0.13-0.299V2z M89.3,2.937v4.277h6.267V2.937H89.3z M89.3,7.604v4.082h6.267
			V7.604H89.3z"/>
		<polygon points="111.919,10.485 111.919,8.212 104.479,8.212 104.479,7.273 111.919,7.273 111.919,5 114.661,7.743 		"/>
		<path d="M126.179,8.124V2.677h-4.901l-0.091-0.39h9.048l0.819-0.689l0.832,0.624c0.065,0.039,0.104,0.117,0.104,0.208
			c0,0.169-0.13,0.247-0.299,0.247h-4.862v5.447h3.965l0.819-0.676l0.832,0.611c0.065,0.039,0.104,0.117,0.104,0.208
			c0,0.169-0.13,0.26-0.299,0.26h-5.421v4.797c0,0.156-0.338,0.234-0.494,0.234c-0.104,0-0.156-0.078-0.156-0.234V8.527h-5.408
			l-0.104-0.403H126.179z M123.722,6.915c-0.312-1.456-0.949-2.587-1.599-3.133L122.07,3.69l0.104-0.104l0.117,0.039
			c1.04,0.728,2.067,2.522,2.067,3.042c0,0.208-0.052,0.507-0.312,0.507C123.852,7.175,123.734,7.006,123.722,6.915z M130.079,3.417
			l0.754,0.286c0.117,0.039,0.182,0.104,0.182,0.182c0,0.052-0.039,0.182-0.182,0.182l-0.208,0.052
			c-0.247,0.533-0.962,1.807-2.028,3.068l-0.143,0.078c-0.039,0-0.143-0.039-0.143-0.13l0.026-0.091
			c0.871-1.131,1.534-2.756,1.664-3.237L130.079,3.417z"/>
		<path d="M140.206,3.912l-0.052-1.573V1.649l0.793,0.13c0.195,0.026,0.286,0.117,0.286,0.234c0,0.104-0.091,0.182-0.221,0.195
			c-0.13,0.013-0.195,0.052-0.195,0.104v1.599h2.782l0.806-0.689l0.78,0.585c0.091,0.078,0.143,0.182,0.143,0.26
			c0,0.143-0.104,0.234-0.273,0.234h-4.212c0.026,0.871,0.091,1.625,0.182,2.249c0.169,1.326,0.299,1.742,0.663,2.821l0.559-0.806
			c0.442-0.741,0.832-1.586,1.157-2.509l0.169-0.559l0.78,0.416c0.117,0.065,0.169,0.143,0.169,0.221
			c0,0.039-0.013,0.182-0.208,0.182c-0.104,0-0.182,0.026-0.208,0.078c-0.455,1.066-1.261,2.574-2.158,3.601
			c0.702,1.547,1.95,2.405,2.275,2.405c0.065,0,0.156-0.156,0.26-0.416l0.403-1.105l0.104-0.091c0.078,0,0.169,0.065,0.169,0.169
			l-0.273,1.248c-0.013,0.091-0.026,0.182-0.026,0.26c0,0.156,0.026,0.286,0.091,0.377c0.052,0.091,0.078,0.182,0.078,0.273
			c0,0.273-0.286,0.273-0.338,0.273c-0.39,0-2.041-0.702-3.146-2.912l-0.286,0.299c-0.598,0.624-1.248,1.144-1.911,1.534
			c-0.65,0.377-1.417,0.715-2.314,1.001c-0.039,0-0.143,0-0.143-0.104l0.078-0.078c1.781-0.676,3.172-1.872,3.874-2.665l0.442-0.533
			l-0.052-0.156c-0.637-1.547-0.897-3.562-1.001-5.473h-4.927v2.301h2.678l0.364-0.338l0.52,0.403l0.091,0.195
			c-0.013,0.078-0.078,0.13-0.169,0.156c-0.078,0.026-0.143,0.117-0.143,0.247c-0.013,0.793-0.078,1.495-0.143,2.132
			c-0.208,1.625-0.494,1.937-1.573,2.08c-0.039-0.468-0.286-0.65-0.741-0.767l-0.104-0.117c0-0.039,0.026-0.169,0.13-0.169
			l0.039,0.013c0.507,0.156,0.871,0.221,1.092,0.221c0.169,0,0.26-0.143,0.338-0.338c0.039-0.091,0.312-0.845,0.312-3.328h-2.717
			c-0.013,1.378-0.143,3.367-0.715,4.862c-0.195,0.481-0.663,1.495-0.884,1.495l-0.091-0.117l0.039-0.078
			c0.481-1.092,1.04-2.444,1.04-7.306V3.47l0.598,0.442H140.206z M143.391,3.236c-0.039,0.156-0.195,0.208-0.286,0.208
			c-0.221,0-0.286-0.182-0.299-0.221c-0.13-0.455-0.455-1.079-0.806-1.3l-0.078-0.104l0.117-0.117c0.221,0,1.183,0.715,1.352,1.196
			V3.236z"/>
		<polygon points="148.062,12.44 148.062,11.5 149.941,11.5 149.941,4.086 148.062,4.556 148.062,3.591 151.198,2.811 151.198,11.5 
			153.077,11.5 153.077,12.44 		"/>
		<path d="M154.991,9.944l-0.104-0.39h2.197V5.627l0.585,0.468h3.185V3.586h-3.575l-0.507,0.936
			c-0.702,1.157-1.612,2.028-1.742,2.028l-0.104-0.104l0.052-0.117c0.624-0.728,1.144-1.521,1.521-2.34
			c0.455-0.923,0.78-1.716,0.845-2.509l0.741,0.169c0.143,0.039,0.221,0.104,0.221,0.182c0,0.13-0.078,0.195-0.182,0.195
			c-0.104,0-0.169,0.013-0.182,0.065l-0.455,1.105h6.825l0.806-0.676l0.78,0.585c0.091,0.078,0.143,0.169,0.143,0.247
			c0,0.143-0.104,0.247-0.273,0.247h-4.264v2.496h1.95l0.793-0.689l0.793,0.585c0.104,0.091,0.13,0.182,0.13,0.273
			c0,0.182-0.156,0.221-0.26,0.221h-3.406v3.068h3.51l0.819-0.689l0.832,0.624l0.104,0.195c0,0.143-0.104,0.26-0.299,0.26h-4.966
			v3.432c0,0.182-0.481,0.234-0.494,0.234c-0.104,0-0.156-0.078-0.156-0.234V9.944H154.991z M160.854,9.554V6.473h-3.107v3.081
			H160.854z"/>
		<polygon points="169.283,12.44 169.283,11.5 171.162,11.5 171.162,4.086 169.283,4.556 169.283,3.591 172.418,2.811 172.418,11.5 
			174.297,11.5 174.297,12.44 		"/>
		<path d="M185.779,12.765c0,0.364-0.26,0.624-1.183,0.793c-0.104-0.416-0.312-0.52-1.274-0.767c-0.091-0.026-0.13-0.078-0.13-0.156
			l0.117-0.091h0.039c0.546,0.065,0.962,0.104,1.248,0.104c0.299,0,0.533-0.013,0.533-0.325V8.579h-5.747l-0.052,0.507
			c-0.221,1.274-0.676,2.47-1.508,3.341c-0.507,0.572-1.248,1.04-1.378,1.04l-0.104-0.117l0.065-0.117
			c1.066-0.78,1.599-1.781,1.872-2.587c0.585-1.612,0.598-4.264,0.585-5.019V1.584l0.507,0.455h5.759l0.286-0.364l0.507,0.416
			c0.104,0.078,0.169,0.169,0.169,0.273s-0.065,0.195-0.169,0.234c-0.091,0.039-0.143,0.091-0.143,0.143V12.765z M179.526,5.419
			v0.208l-0.104,2.548h5.708V5.419H179.526z M179.526,2.43v2.6h5.604v-2.6H179.526z"/>
		<path d="M191.538,7.324c-0.918-0.639-1.377-1.346-1.377-2.12c0-0.711,0.26-1.289,0.781-1.733s1.2-0.667,2.038-0.667
			c0.774,0,1.402,0.188,1.882,0.565c0.48,0.376,0.721,0.865,0.721,1.466c0,0.91-0.584,1.739-1.752,2.488
			c1.417,0.694,2.126,1.589,2.126,2.685c0,0.787-0.297,1.428-0.892,1.923c-0.594,0.495-1.361,0.743-2.301,0.743
			c-0.922,0-1.668-0.234-2.237-0.702c-0.569-0.467-0.854-1.082-0.854-1.844C189.671,9.004,190.293,8.068,191.538,7.324z
			 M192.217,7.832c-0.503,0.389-0.845,0.729-1.025,1.019c-0.18,0.29-0.27,0.651-0.27,1.083c0,0.538,0.173,0.972,0.521,1.304
			c0.347,0.333,0.804,0.499,1.371,0.499c0.546,0,0.991-0.142,1.336-0.425c0.345-0.284,0.518-0.652,0.518-1.104
			c0-0.364-0.107-0.672-0.32-0.924c-0.214-0.251-0.627-0.56-1.241-0.923L192.217,7.832z M193.131,6.93
			c0.876-0.576,1.314-1.217,1.314-1.923c0-0.376-0.146-0.68-0.438-0.911c-0.292-0.231-0.677-0.346-1.155-0.346
			c-0.461,0-0.836,0.113-1.124,0.339c-0.288,0.227-0.432,0.52-0.432,0.879c0,0.351,0.13,0.666,0.39,0.943
			C191.947,6.188,192.428,6.528,193.131,6.93z"/>
		<path d="M199.537,2l0.65,0.546h6.267l0.312-0.429l0.598,0.403l0.052,0.13c0,0.117-0.091,0.221-0.182,0.247
			c-0.104,0.039-0.143,0.091-0.143,0.13v9.945c0,0.182-0.338,0.247-0.468,0.247c-0.117,0-0.169-0.078-0.169-0.234v-0.91h-6.267
			v0.897c0,0.169-0.156,0.208-0.52,0.299c-0.091,0-0.13-0.104-0.13-0.299V2z M200.187,2.937v4.277h6.267V2.937H200.187z
			 M200.187,7.604v4.082h6.267V7.604H200.187z"/>
	</g>
</g>
</svg>
